<svg width="517" height="83" viewBox="0 0 517 83" fill="none" xmlns="http://www.w3.org/2000/svg">
<path d="M38.8329 2.88724L28.214 24.3479L4.45577 27.8004C0.195217 28.4163 -1.51226 33.6518 1.57746 36.6505L18.766 53.3457L14.7006 76.9297C13.9688 81.1926 18.4733 84.3858 22.246 82.3921L43.5 71.2565L64.754 82.3921C68.5267 84.3695 73.0312 81.1926 72.2994 76.9297L68.234 53.3457L85.4226 36.6505C88.5123 33.6518 86.8048 28.4163 82.5442 27.8004L58.786 24.3479L48.1671 2.88724C46.2645 -0.938063 40.7518 -0.98669 38.8329 2.88724Z" fill="white"/>
<path d="M147.833 2.88724L137.214 24.3479L113.456 27.8004C109.195 28.4163 107.488 33.6518 110.577 36.6505L127.766 53.3457L123.701 76.9297C122.969 81.1926 127.473 84.3858 131.246 82.3921L152.5 71.2565L173.754 82.3921C177.527 84.3695 182.031 81.1926 181.299 76.9297L177.234 53.3457L194.423 36.6505C197.512 33.6518 195.805 28.4163 191.544 27.8004L167.786 24.3479L157.167 2.88724C155.264 -0.938063 149.752 -0.98669 147.833 2.88724Z" fill="white"/>
<path d="M256.833 2.88724L246.214 24.3479L222.456 27.8004C218.195 28.4163 216.488 33.6518 219.577 36.6505L236.766 53.3457L232.701 76.9297C231.969 81.1926 236.473 84.3858 240.246 82.3921L261.5 71.2565L282.754 82.3921C286.527 84.3695 291.031 81.1926 290.299 76.9297L286.234 53.3457L303.423 36.6505C306.512 33.6518 304.805 28.4163 300.544 27.8004L276.786 24.3479L266.167 2.88724C264.264 -0.938063 258.752 -0.98669 256.833 2.88724Z" fill="white"/>
<path d="M365.833 2.88724L355.214 24.3479L331.456 27.8004C327.195 28.4163 325.488 33.6518 328.577 36.6505L345.766 53.3457L341.701 76.9297C340.969 81.1926 345.473 84.3858 349.246 82.3921L370.5 71.2565L391.754 82.3921C395.527 84.3695 400.031 81.1926 399.299 76.9297L395.234 53.3457L412.423 36.6505C415.512 33.6518 413.805 28.4163 409.544 27.8004L385.786 24.3479L375.167 2.88724C373.264 -0.938063 367.752 -0.98669 365.833 2.88724Z" fill="white"/>
<path d="M468.833 2.88724L458.214 24.3479L434.456 27.8004C430.195 28.4163 428.488 33.6518 431.577 36.6505L448.766 53.3457L444.701 76.9297C443.969 81.1926 448.473 84.3858 452.246 82.3921L473.5 71.2565L494.754 82.3921C498.527 84.3695 503.031 81.1926 502.299 76.9297L498.234 53.3457L515.423 36.6505C518.512 33.6518 516.805 28.4163 512.544 27.8004L488.786 24.3479L478.167 2.88724C476.264 -0.938063 470.752 -0.98669 468.833 2.88724Z" fill="white"/>
</svg>
