<svg width="186" height="186" viewBox="0 0 186 186" fill="none" xmlns="http://www.w3.org/2000/svg">
<path d="M92.9744 185.943C144.323 185.943 185.949 144.318 185.949 92.9713C185.949 41.6247 144.323 0 92.9744 0C41.626 0 0 41.6247 0 92.9713C0 144.318 41.626 185.943 92.9744 185.943Z" fill="#DF652B"/>
<g filter="url(#filter0_d_166_58)">
<rect x="64.8809" y="41" width="100.647" height="78.6988" rx="4" transform="rotate(25.5 64.8809 41)" fill="white"/>
<rect x="64.8809" y="41" width="100.647" height="78.6988" rx="4" transform="rotate(25.5 64.8809 41)" stroke="black"/>
<line x1="73.3593" y1="93.6343" x2="59.3593" y2="123.634" stroke="black" stroke-width="3"/>
<rect x="130.268" y="49" width="15.4527" height="69.0453" rx="2" transform="rotate(26 130.268 49)" fill="black"/>
<rect x="95.2676" y="31" width="15.4527" height="69.0453" rx="2" transform="rotate(26 95.2676 31)" fill="black"/>
<line x1="108.359" y1="111.634" x2="94.3593" y2="141.634" stroke="black" stroke-width="3"/>
</g>
<defs>
<filter id="filter0_d_166_58" x="32.332" y="31.6738" width="131.061" height="132.357" filterUnits="userSpaceOnUse" color-interpolation-filters="sRGB">
<feFlood flood-opacity="0" result="BackgroundImageFix"/>
<feColorMatrix in="SourceAlpha" type="matrix" values="0 0 0 0 0 0 0 0 0 0 0 0 0 0 0 0 0 0 127 0" result="hardAlpha"/>
<feOffset dx="5" dy="6"/>
<feGaussianBlur stdDeviation="2"/>
<feComposite in2="hardAlpha" operator="out"/>
<feColorMatrix type="matrix" values="0 0 0 0 0 0 0 0 0 0 0 0 0 0 0 0 0 0 0.25 0"/>
<feBlend mode="normal" in2="BackgroundImageFix" result="effect1_dropShadow_166_58"/>
<feBlend mode="normal" in="SourceGraphic" in2="effect1_dropShadow_166_58" result="shape"/>
</filter>
</defs>
</svg>
