<svg width="754" height="478" viewBox="0 0 754 478" fill="none" xmlns="http://www.w3.org/2000/svg">
<path d="M494.371 114.307L468.771 88.707C465.434 85.37 460.041 85.37 456.705 88.707L368.871 176.541L340.771 148.441C337.434 145.104 332.041 145.104 328.705 148.441L303.105 174.041C299.768 177.377 299.768 182.771 303.105 186.107L362.838 245.84C364.502 247.513 366.687 248.34 368.871 248.34C371.056 248.34 373.24 247.504 374.904 245.84L494.371 126.373C497.708 123.037 497.708 117.644 494.371 114.307ZM368.871 227.741L321.204 180.074L334.738 166.54L362.838 194.64C366.175 197.977 371.568 197.977 374.904 194.64L462.738 106.806L476.272 120.34L368.871 227.741Z" fill="#DF652B"/>
<path d="M657.025 208.746L618.915 163.007L657.025 117.268C659.15 114.725 659.602 111.184 658.203 108.189C656.795 105.194 653.783 103.274 650.472 103.274H538.403L530.919 50.871C530.322 46.664 526.721 43.541 522.471 43.541H457.293C447.241 35.161 408.465 2.85399 408.465 2.85399C405.299 0.208989 400.708 0.208989 397.542 2.85399L348.714 43.541H283.536C279.286 43.541 275.694 46.664 275.088 50.863L267.604 103.275H155.538C152.227 103.275 149.215 105.195 147.807 108.19C146.399 111.194 146.86 114.735 148.985 117.269L187.095 163.008L148.985 208.747C146.86 211.29 146.408 214.831 147.807 217.826C149.215 220.83 152.227 222.741 155.538 222.741H267.606C269.884 238.656 275.098 275.153 275.098 275.153C275.695 279.36 279.296 282.475 283.537 282.475H348.715L397.543 323.162C399.13 324.485 401.067 325.142 403.004 325.142C404.941 325.142 406.887 324.485 408.465 323.162L457.284 282.475C470.545 282.475 522.487 282.509 522.47 282.475C526.72 282.475 530.312 279.352 530.918 275.153C530.918 275.153 536.132 238.656 538.41 222.741H650.47C653.781 222.741 656.793 220.821 658.201 217.826C659.611 214.821 659.15 211.28 657.025 208.746ZM173.757 205.674L204.759 168.469C207.396 165.303 207.396 160.704 204.759 157.546L173.757 120.34H256.786L225.784 157.545C223.147 160.711 223.147 165.31 225.784 168.468L256.786 205.673H173.757V205.674ZM524.46 208.737C524.042 209.24 523.675 209.795 523.385 210.384C522.788 211.579 522.762 211.63 515.082 265.407C452.2 265.407 452.14 265.441 450.391 266.312C449.802 266.611 449.248 266.969 448.744 267.387L403.005 305.497L357.266 267.387C355.739 266.107 353.801 265.407 351.805 265.407H290.937C283.257 211.63 283.231 211.579 282.634 210.384C282.335 209.795 281.977 209.241 281.559 208.737L243.449 163.007L281.559 117.268C282.575 116.048 283.232 114.58 283.453 113.01L290.937 60.607H351.805C353.802 60.607 355.73 59.907 357.266 58.627L403.005 20.517C449.495 59.258 449.529 59.275 450.391 59.711C451.577 60.3 452.883 60.607 454.205 60.607H515.073L522.557 113.019C522.779 114.589 523.436 116.057 524.451 117.277L562.561 163.007L524.46 208.737ZM549.223 205.674L580.225 168.469C582.862 165.303 582.862 160.704 580.225 157.546L549.223 120.341H632.252L601.25 157.546C598.613 160.712 598.613 165.311 601.25 168.469L632.252 205.674H549.223Z" fill="#DF652B"/>
<rect x="546" y="116" width="90" height="17" fill="#DF652B"/>
<rect x="556" y="133" width="70" height="17" fill="#DF652B"/>
<rect x="574" y="150" width="42" height="59" fill="#DF652B"/>
<path d="M551 180H588V209L547 208L551 180Z" fill="#DF652B"/>
<rect x="569" y="166" width="37" height="29" fill="#DF652B"/>
<rect x="595" y="181" width="37" height="29" fill="#DF652B"/>
<rect x="169" y="115" width="90" height="17" fill="#DF652B"/>
<rect x="179" y="132" width="70" height="17" fill="#DF652B"/>
<rect x="197" y="149" width="42" height="59" fill="#DF652B"/>
<rect x="174" y="179" width="37" height="29" fill="#DF652B"/>
<rect x="192" y="165" width="37" height="29" fill="#DF652B"/>
<rect x="218" y="180" width="37" height="29" fill="#DF652B"/>
<path fill-rule="evenodd" clip-rule="evenodd" d="M147.77 110.222C142.885 105.062 139.424 98.6061 139.555 91.1616C139.935 69.7119 169.931 72.8541 176.283 83.3372C182.635 93.8202 183.381 121.217 176.003 123.536C173.061 124.462 166.608 122.911 159.937 119.352L165.501 147.856L141.534 149.112L147.77 110.222Z" fill="#915B3C"/>
<path fill-rule="evenodd" clip-rule="evenodd" d="M166.2 72.0855C162.873 71.2585 158.101 71.169 156.113 71.5029C157.108 68.7176 157.4 65.6572 156.877 62.7197C156.369 59.8654 154.957 57.4863 153.635 54.9851C153.026 53.8322 152.344 52.6895 151.372 51.8342C150.382 50.9628 149.158 50.4175 147.892 50.1931C146.597 49.9633 145.26 50.0582 143.993 50.3947C143.432 50.5435 142.937 50.8294 142.389 51.0026C141.827 51.1801 141.532 50.8382 141.1 50.5017C140.059 49.691 138.576 49.3415 137.308 49.255C135.886 49.1581 134.43 49.4483 133.106 49.9836C131.817 50.5048 130.595 51.3056 129.702 52.4255C129.305 52.9241 128.95 53.4864 128.732 54.0982C128.643 54.3492 128.634 54.4957 128.393 54.5985C128.171 54.6937 127.906 54.71 127.676 54.8016C125.453 55.6865 123.61 57.5362 122.674 59.8362C122.129 61.178 121.958 63.499 122.173 66.0792C122.389 68.6593 125.076 75.2803 127.387 77.6255C129.45 79.7188 132.39 81.0176 135.186 81.5069C133.462 83.6997 132.378 86.3837 131.615 89.0956C130.786 92.0414 130.336 95.0806 130.273 98.1566C130.213 101.079 130.354 104.159 131.186 106.973C131.964 109.604 133.444 111.718 135.796 112.985C136.874 113.566 138.022 113.984 139.175 114.361C140.311 114.732 141.45 115.092 142.629 115.272C144.86 115.612 147.4 115.401 149.008 113.554C149.588 112.889 150.221 112.057 150.627 111.26C150.773 110.973 150.861 110.786 150.651 110.525C150.4 110.211 150.008 109.981 149.694 109.742C147.904 108.379 146.741 106.495 146.353 104.203C145.959 101.878 146.429 98.8262 148.65 97.6862C151.391 96.2789 154.558 97.5633 157.124 98.7809C157.989 94.9826 159.989 91.4987 163.313 89.603C166.99 87.5058 171.312 87.0564 175.108 85.2235C176.097 84.7458 177.102 84.2098 177.801 83.3056C178.093 82.9276 178.434 82.4394 178.533 81.9547C178.663 81.3179 178.23 80.8124 177.892 80.339C176.096 77.8291 169.528 72.9125 166.2 72.0855Z" fill="#191847"/>
<path fill-rule="evenodd" clip-rule="evenodd" d="M139.886 232.312L220.592 352.48L281.721 454.444L293.704 453.816L188.493 229.765L139.886 232.312Z" fill="#784931"/>
<path fill-rule="evenodd" clip-rule="evenodd" d="M274.14 449.986C273.18 453.027 272.738 455.288 272.815 456.769C272.91 458.569 273.348 461.181 274.129 464.605C276.218 464.495 294.993 463.511 330.453 461.653C331.663 456.738 330.681 454.169 327.508 453.949C324.334 453.728 321.696 453.517 319.594 453.316L292.803 443.017C292.288 442.819 291.709 443.076 291.511 443.591C291.508 443.6 291.504 443.609 291.501 443.618L290.032 447.788C287.184 449.303 284.848 450.109 283.023 450.204C281.54 450.282 279.46 449.79 276.785 448.73L276.785 448.73C275.758 448.322 274.595 448.825 274.188 449.852C274.171 449.896 274.155 449.941 274.14 449.986Z" fill="#E4E4E4"/>
<path fill-rule="evenodd" clip-rule="evenodd" d="M265.39 438.459L288.132 430.258C276.422 400.522 262.267 367.865 245.669 332.287C229.071 296.71 211.452 262.46 192.814 229.538L127.547 232.959C148.541 274.738 170.457 312.552 193.296 346.399C216.136 380.245 240.167 410.932 265.39 438.459Z" fill="#BD5624"/>
<path fill-rule="evenodd" clip-rule="evenodd" d="M135.01 232.568C130.291 276.529 119.702 332.934 118.517 334.72C117.727 335.91 87.6697 347.765 28.3443 370.286L31.4865 380.717C102.898 366.564 140.39 356.522 143.963 350.592C149.323 341.696 174.776 272.304 183.826 230.009L135.01 232.568Z" fill="#915B3C"/>
<path fill-rule="evenodd" clip-rule="evenodd" d="M49.0761 360.04L54.5271 376.82C108.593 378.719 141.39 373.58 152.918 361.403C164.446 349.226 176.013 305.362 187.62 229.811L125.384 233.072C118.757 294.788 114.929 326.96 113.902 329.59C112.875 332.22 91.2661 342.37 49.0761 360.04Z" fill="#DF652B"/>
<path fill-rule="evenodd" clip-rule="evenodd" d="M31.0686 365.729C27.907 365.311 25.6038 365.268 24.1592 365.602C22.4021 366.008 19.9057 366.892 16.6699 368.256C17.1405 370.294 21.3697 388.613 29.3576 423.212C34.4086 423.55 36.7671 422.137 36.4332 418.974C36.0993 415.81 35.8491 413.175 35.6826 411.07L41.1728 382.898C41.2784 382.356 40.9246 381.831 40.3825 381.725C40.3733 381.723 40.364 381.722 40.3546 381.72L35.9928 380.998C34.0061 378.456 32.8073 376.295 32.3961 374.514C32.0621 373.067 32.1851 370.934 32.7652 368.115L32.7653 368.115C32.9879 367.033 32.2913 365.975 31.2094 365.753C31.1628 365.743 31.1158 365.735 31.0686 365.729Z" fill="#E4E4E4"/>
<path fill-rule="evenodd" clip-rule="evenodd" d="M187.195 167.448L220.862 146.647C226.267 139.5 231.668 133.886 237.064 129.806C238.736 129.003 241.703 128.414 239.167 133.522C236.631 138.631 234.194 144.119 235.699 145.573C237.203 147.027 240.643 144.705 242.475 147.156C243.696 148.79 237.769 151.783 224.693 156.135L200.715 180.515L187.195 167.448ZM242.322 180.62L257.109 171.458C258.819 163.217 261.159 158.993 264.127 158.787C266.354 157.605 262.917 168.085 267.197 166.968C271.478 165.85 281.627 157.442 283.53 158.942C286.346 161.16 284.325 168.53 281.685 172.282C276.752 179.294 272.497 181.827 261.837 185.41C256.264 187.283 250.315 190.765 243.989 195.854L242.322 180.62Z" fill="#915B3C"/>
<path fill-rule="evenodd" clip-rule="evenodd" d="M170.092 164.103C182.226 163.339 198.282 159.926 214.982 148.055L222.559 162.829C211.263 175.279 195.018 185.873 180.346 186.229C168.784 186.51 162.152 172.855 170.092 164.103Z" fill="#008678"/>
<path fill-rule="evenodd" clip-rule="evenodd" d="M187.711 187.509C200.769 190.048 222.185 185.125 251.958 172.739C260.299 187.913 264.36 198.83 264.14 205.49C238.825 220.449 216.836 227.68 198.479 229.043C199.634 239.917 198.851 250.363 194.889 260.078C186.744 280.05 132.122 264.811 114.26 269.31C101.035 233.198 122.106 217.136 120.893 193.65C119.564 167.93 138.14 127.26 141.179 127.1L168.888 125.648C171.446 145.21 180.275 166.454 187.711 187.509Z" fill="#009687"/>
<path fill-rule="evenodd" clip-rule="evenodd" d="M674.738 157.49C679.346 152.081 682.464 145.453 681.943 138.025C680.442 116.625 650.651 121.333 644.857 132.134C639.062 142.935 639.75 170.333 647.24 172.263C650.226 173.033 656.589 171.147 663.065 167.244L659 196H683L674.738 157.49Z" fill="#B28B67"/>
<path fill-rule="evenodd" clip-rule="evenodd" d="M692.407 130.902C693.182 130.134 693.605 129.037 693.97 127.996C694.35 126.914 694.719 125.822 694.972 124.696C695.475 122.447 695.48 119.86 693.876 118.114C692.589 116.713 690.658 116.085 688.876 115.948C687.689 115.857 686.469 116.024 685.331 116.398C684.202 116.769 683.229 117.509 682.134 117.968C682.092 115.544 681.677 113.008 680.447 110.938C679.264 108.947 677.378 107.829 675.229 107.534C673.024 107.23 670.846 107.746 668.872 108.814C668.378 109.081 667.888 109.361 667.419 109.678C667.027 109.944 666.619 110.264 666.159 110.372C665.645 110.492 665.391 110.196 665.058 109.821C664.666 109.382 664.226 108.996 663.76 108.653C661.698 107.137 658.993 106.514 656.604 107.423C655.504 107.841 654.433 108.552 653.687 109.531C653.021 110.404 652.546 111.789 651.628 112.398C651.238 112.656 650.963 112.314 650.608 112.061C650.075 111.681 649.566 111.262 649.027 110.892C648.269 110.373 647.448 109.985 646.57 109.781C645.283 109.484 643.506 109.553 643.138 111.238C643 111.871 643.106 112.548 643.15 113.186C643.211 114.061 643.275 114.936 643.351 115.811C643.409 116.474 643.482 117.115 643.607 117.767C643.674 118.115 643.883 118.763 643.734 119.111C643.548 119.546 642.689 119.298 642.321 119.313C641.596 119.343 640.868 119.47 640.197 119.78C639.678 120.021 639.131 120.374 638.912 120.969C638.777 121.335 638.813 121.711 638.876 122.088C638.953 122.539 638.865 122.779 638.808 123.235C637.834 122.755 634.459 121.69 634.035 123.435C633.893 124.016 634.215 124.673 634.461 125.163C634.892 126.023 635.457 126.809 636.034 127.558C637.239 129.121 638.677 130.47 640.224 131.623C638.411 132.429 637.938 134.806 639.507 136.222C640.2 136.848 641.132 136.987 642.006 136.947C642.326 136.932 642.787 136.809 643.039 136.865C643.175 136.895 643.32 137.01 643.507 137.022C644.741 137.107 646.134 136.81 647.34 136.536C649.488 136.048 651.523 135.03 653.184 133.48C653.61 133.082 653.962 132.853 654.536 132.859C655.038 132.864 655.532 133.002 656.034 133.015C657.362 133.048 658.56 132.399 659.794 131.967C659.87 133.633 660.345 135.469 661.026 136.969C661.582 138.191 662.743 138.369 663.884 138.476C667.533 138.82 671.194 138.437 674.848 138.442C671.311 139.241 667.657 139.571 664.152 140.511C662.568 140.936 663.778 142.004 664.455 142.744C665.57 143.963 666.4 145.474 666.975 147.065C668.705 144.81 671.763 143.324 674.472 144.017C677.465 144.782 679.573 148.83 677.659 151.74C676.547 153.429 674.541 154.081 672.871 154.807C674.173 156.161 674.489 158.161 675.273 159.846C675.659 160.677 676.202 161.617 677.067 161.906C677.387 162.013 677.762 162.022 678.014 162.283C678.327 162.606 678.401 162.967 678.801 163.245C680.394 164.352 682.883 164.267 684.295 162.821C685.572 161.514 685.24 159.445 684.173 158.12C685.871 157.412 688.964 156.502 688.289 153.857C691.968 153.613 700.9 147.646 695.963 143.286C698.673 141.755 701.162 138.012 699.422 134.713C698.081 132.172 694.964 131.036 692.407 130.902Z" fill="#191847"/>
<path fill-rule="evenodd" clip-rule="evenodd" d="M726.377 321H649.123L639 445H754L726.377 321Z" fill="#C5CFD6"/>
<path fill-rule="evenodd" clip-rule="evenodd" d="M726.377 321H702.617L688.396 445H754L726.377 321Z" fill="black" fill-opacity="0.1"/>
<path fill-rule="evenodd" clip-rule="evenodd" d="M561.047 299.756C552.81 294.81 538.99 301.165 539 308.238C539.028 329.403 558.343 429.151 559.352 435.457C560.36 441.762 571.163 443.428 571.792 435.477C572.793 422.827 574.653 379.033 572.792 358.763C572.024 350.395 571.197 342.427 570.383 335.318C580.518 353.621 596.193 379.826 617.407 413.934L628.923 408.672C619.88 378.876 612.464 357.841 606.676 345.566C596.767 324.55 587.475 306.552 583.564 300.212C577.412 290.24 566.704 293.719 561.047 299.756Z" fill="#B28B67"/>
<path fill-rule="evenodd" clip-rule="evenodd" d="M628.1 392.125L588.573 298.487C579.103 283.255 552.554 301.587 555.783 310.422C563.115 330.479 600.4 395.414 602.585 401.39L628.1 392.125Z" fill="#2D3F4A"/>
<path fill-rule="evenodd" clip-rule="evenodd" d="M630.296 402.767C632.758 404.794 634.359 406.45 635.101 407.734C636.002 409.296 637.058 411.725 638.267 415.021C636.456 416.067 620.174 425.467 589.422 443.222C585.73 439.759 585.155 437.07 587.696 435.157C590.238 433.243 592.335 431.629 593.988 430.315L610.848 407.087C611.172 406.64 611.798 406.54 612.245 406.865C612.252 406.87 612.26 406.876 612.267 406.882L615.77 409.579C618.984 409.299 621.382 408.702 622.965 407.788C624.251 407.045 625.727 405.501 627.394 403.154L627.394 403.154C628.033 402.253 629.281 402.041 630.182 402.681C630.221 402.708 630.259 402.737 630.296 402.767Z" fill="#E4E4E4"/>
<path fill-rule="evenodd" clip-rule="evenodd" d="M574.322 430.402C575.441 433.388 576 435.623 576 437.106C576 438.909 575.7 441.54 575.099 445C573.007 445 554.206 445 518.697 445C517.231 440.154 518.077 437.539 521.235 437.152C524.393 436.766 527.016 436.417 529.105 436.106L555.32 424.419C555.824 424.194 556.416 424.421 556.641 424.925C556.644 424.934 556.648 424.942 556.652 424.951L558.337 429.039C561.26 430.403 563.636 431.085 565.463 431.085C566.948 431.085 568.999 430.485 571.616 429.285L571.616 429.285C572.62 428.825 573.807 429.266 574.267 430.27C574.287 430.313 574.305 430.357 574.322 430.402Z" fill="#E4E4E4"/>
<path fill-rule="evenodd" clip-rule="evenodd" d="M536.23 315.433C536.23 342 548.846 403.97 548.854 409.82L576 409.841C572.027 354.545 570.618 326.6 571.773 326.004C573.507 325.111 642.824 332.925 663.614 332.925C693.592 332.925 705.994 314.02 707 279H647.614C635.522 280.294 572.451 293.015 549.028 297.388C539 299.261 536.23 308.115 536.23 315.433Z" fill="#405867"/>
<path fill-rule="evenodd" clip-rule="evenodd" d="M638.362 216.7L603.652 197.69C597.88 190.836 592.193 185.512 586.591 181.72C584.879 181.005 581.886 180.573 584.685 185.542C587.485 190.51 590.206 195.863 588.78 197.394C587.354 198.924 583.797 196.786 582.096 199.329C580.961 201.025 587.037 203.704 600.323 207.365L625.544 230.458L638.362 216.7ZM584 232.74L568.754 224.364C566.614 216.224 564.057 212.128 561.082 212.077C558.796 211.014 562.777 221.3 558.444 220.408C554.111 219.516 543.536 211.651 541.714 213.248C539.018 215.61 541.422 222.864 544.254 226.473C549.547 233.218 553.93 235.524 564.762 238.544C570.425 240.123 576.549 243.289 583.132 248.04L584 232.74Z" fill="#997659"/>
<path fill-rule="evenodd" clip-rule="evenodd" d="M655.266 212.465C643.108 212.337 626.896 209.769 609.597 198.789L602.804 213.939C614.736 225.78 631.514 235.51 646.184 235.098C657.745 234.773 663.653 220.789 655.266 212.465Z" fill="#883C20"/>
<path fill-rule="evenodd" clip-rule="evenodd" d="M638.896 236.761C625.989 239.98 604.345 236.184 573.964 225.373C566.428 240.964 562.945 252.078 563.513 258.717C589.576 272.331 611.913 278.401 630.317 278.802C629.732 289.721 631.061 300.112 635.526 309.606C644.705 329.124 698.455 311.048 716.527 314.606C727.845 277.851 705.962 262.914 705.944 239.397C705.925 213.642 685.246 174 682.203 174H654.456C652.925 193.669 645.22 215.346 638.896 236.761Z" fill="#9E4727"/>
</svg>
